<svg width="20" height="19" viewBox="0 0 20 19" fill="none" xmlns="http://www.w3.org/2000/svg">
<path d="M9.97111 0C4.79077 0 0.589844 4.20093 0.589844 9.38127C0.589844 14.5616 4.79077 18.7625 9.97111 18.7625C15.1515 18.7625 19.3524 14.5616 19.3524 9.38127C19.3524 4.20093 15.1515 0 9.97111 0ZM15.3255 11.6022C15.2995 12.1756 15.2083 12.5671 15.0752 12.9098C14.7953 13.6334 14.2233 14.2055 13.4997 14.4853C13.1571 14.6184 12.7655 14.7095 12.1922 14.7357C11.6177 14.7619 11.4342 14.7682 9.97125 14.7682C8.50815 14.7682 8.32478 14.7619 7.75019 14.7357C7.17689 14.7095 6.78524 14.6184 6.44269 14.4853C6.0831 14.35 5.75759 14.138 5.48847 13.8639C5.21449 13.5949 5.00249 13.2693 4.86721 12.9098C4.73409 12.5673 4.6429 12.1756 4.61685 11.6023C4.59037 11.0277 4.58421 10.8442 4.58421 9.38127C4.58421 7.91831 4.59037 7.73479 4.61671 7.16035C4.64276 6.5869 4.7338 6.19539 4.86693 5.8527C5.0022 5.49326 5.21434 5.1676 5.48847 4.89863C5.75744 4.6245 6.0831 4.4125 6.44254 4.27723C6.78524 4.1441 7.17674 4.05306 7.75019 4.02686C8.32464 4.00067 8.50815 3.99437 9.97111 3.99437C11.4341 3.99437 11.6176 4.00067 12.192 4.02701C12.7655 4.05306 13.157 4.1441 13.4997 4.27708C13.8591 4.41236 14.1848 4.6245 14.4539 4.89863C14.7279 5.16774 14.94 5.49326 15.0752 5.8527C15.2084 6.19539 15.2995 6.5869 15.3257 7.16035C15.3519 7.73479 15.358 7.91831 15.358 9.38127C15.358 10.8442 15.3519 11.0277 15.3255 11.6022Z" fill="white"/>
</svg>
